<svg width="122" height="28" viewBox="0 0 122 28" fill="none" xmlns="http://www.w3.org/2000/svg">
<path d="M51.0059 14.8638V21.1488H53.8528V14.8638C53.8528 13.575 54.6586 12.7691 55.9475 12.7691H57.9885V10.1368H55.7865C52.8322 10.1368 51.0059 11.9632 51.0059 14.8638Z" fill="#FAFAFA"/>
<path d="M37.6312 15.7233V10.1368H34.9453V15.616C34.9453 16.0453 34.9453 17.8181 36.3952 19.3224C37.845 20.7723 39.1348 21.1488 41.3368 21.1488V18.5166C39.8869 18.5166 38.9192 18.1946 38.2752 17.5497C37.6304 16.8512 37.6304 15.8307 37.6304 15.7233H37.6312Z" fill="#FAFAFA"/>
<path d="M46.2788 18.488C45.2791 18.3971 44.5494 18.0855 43.9695 17.5497C43.3246 16.8512 43.3246 15.8307 43.3246 15.7233V10.1368H40.6387V15.616C40.6387 16.0453 40.6387 17.8181 42.0894 19.3224C43.4042 20.6373 44.7545 21.1488 46.2788 21.1488H49.1257V10.1377H46.2788V18.4889V18.488Z" fill="#FAFAFA"/>
<path d="M62.2327 6.5923H59.3857V16.8521C59.3857 19.4843 61.1048 21.1489 63.7907 21.1489H66.423V18.5166H63.9517C62.9849 18.5166 62.2327 17.7108 62.2327 16.7976V12.7691H66.4221V10.1369H62.2327V6.59143V6.5923Z" fill="#FAFAFA"/>
<path d="M72.9221 10.1377H67.9805V21.1488H70.8274V12.7691H72.7074C73.9426 12.7691 74.8022 13.6286 74.8022 14.8638V21.1488H77.6491V14.8638C77.6491 11.9632 75.8227 10.1368 72.9221 10.1368V10.1377Z" fill="#FAFAFA"/>
<path d="M81.2863 21.4069C82.4551 21.4069 83.4026 20.4593 83.4026 19.2905C83.4026 18.1217 82.4551 17.1741 81.2863 17.1741C80.1174 17.1741 79.1699 18.1217 79.1699 19.2905C79.1699 20.4593 80.1174 21.4069 81.2863 21.4069Z" fill="#FAFAFA"/>
<path d="M87.6081 6.59229H85.3359V21.1419H87.6081V6.59229Z" fill="#FAFAFA"/>
<path d="M98.817 18.7728V14.4934C98.817 11.6101 97.3274 10.1473 94.3896 10.1473C91.7054 10.1473 90.2322 11.9347 89.9638 13.7057L89.9491 13.8052H92.1572L92.1719 13.7377C92.4082 12.6731 93.2738 12.0126 94.4311 12.0126C95.7477 12.0126 96.5657 12.5337 96.5657 13.3733C96.5657 14.1619 96.1225 14.4882 94.7427 14.7141C94.5757 14.7427 94.38 14.7704 94.1723 14.7998C92.4074 15.0517 89.4531 15.4732 89.4531 18.1817C89.4531 19.7345 90.6347 21.4068 93.228 21.4068C94.2407 21.4068 95.0786 21.1532 95.7191 20.652C96.145 20.3188 96.415 19.9293 96.5856 19.5917V19.6696C96.5856 20.1751 96.5856 20.6114 96.6271 21.0632L96.634 21.142H98.9971L98.9789 21.0398C98.882 20.4988 98.817 19.5874 98.817 18.7728ZM96.6055 15.2707V16.164C96.6055 19.3363 94.3792 19.5822 93.6962 19.5822C92.4861 19.5822 91.7045 19.0161 91.7045 18.1401C91.7045 17.2641 92.3364 16.8443 93.9559 16.5344C95.6516 16.2436 96.3008 15.7736 96.6055 15.2707Z" fill="#FAFAFA"/>
<path d="M110.451 11.7106C109.565 10.7013 108.324 10.1681 106.861 10.1681C105.156 10.1681 103.94 11.1479 103.422 12.165V6.59235H101.13V21.142H103.422V19.4472C103.953 20.4322 105.171 21.3861 106.84 21.3861C109.805 21.3861 111.797 19.1234 111.797 15.7563C111.797 14.1117 111.332 12.7129 110.451 11.7106ZM106.413 19.4809C104.115 19.4809 103.3 17.4745 103.3 15.7563C103.3 13.923 104.262 12.0732 106.413 12.0732C108.332 12.0732 109.525 13.485 109.525 15.7563C109.525 18.0276 108.332 19.4809 106.413 19.4809Z" fill="#FAFAFA"/>
<path d="M118.479 15.0206C118.199 14.9479 117.933 14.8838 117.65 14.8154C117.462 14.7696 117.27 14.7237 117.072 14.6743C115.98 14.4008 115.426 13.936 115.426 13.2911C115.426 12.6463 116.087 12.0127 117.193 12.0127C118.127 12.0127 119.169 12.4524 119.288 13.6867L119.296 13.7646H121.508L121.499 13.6694C121.287 11.5098 119.66 10.1672 117.256 10.1672C116.221 10.1672 115.203 10.4737 114.462 11.0086C113.633 11.6067 113.195 12.4238 113.195 13.3716C113.195 14.8492 114.296 15.971 116.213 16.4505C116.623 16.57 117.049 16.6756 117.46 16.7777L117.702 16.8383C118.637 17.0824 119.41 17.3499 119.41 18.1609C119.41 19.442 117.854 19.5415 117.378 19.5415C116.06 19.5415 115.349 19.0006 115.14 17.8398L115.127 17.7688H112.883L112.89 17.8623C113.097 20.4755 115.323 21.4069 117.337 21.4069C119.351 21.4069 121.662 20.2262 121.662 18.0389C121.662 16.5631 120.621 15.5754 118.48 15.0206H118.479Z" fill="#FAFAFA"/>
<path d="M27.9631 14.8864C27.9631 14.8725 27.9639 14.8587 27.9631 14.8448C27.9631 14.831 27.9605 14.818 27.9596 14.8042C27.9587 14.7903 27.9579 14.7765 27.9561 14.7635C27.9544 14.7505 27.9509 14.7366 27.9492 14.7237C27.9466 14.7107 27.9449 14.6968 27.9414 14.6838C27.938 14.6709 27.9345 14.6579 27.9302 14.6458C27.9267 14.6328 27.9232 14.6198 27.9189 14.6068C27.9146 14.5938 27.9094 14.5826 27.9042 14.5696C27.899 14.5575 27.8947 14.5445 27.8895 14.5324C27.8843 14.5202 27.8774 14.509 27.8713 14.4977C27.8652 14.4856 27.8592 14.4735 27.8531 14.4623C27.8471 14.451 27.8393 14.4406 27.8324 14.4302C27.8306 14.4276 27.8289 14.4242 27.8263 14.4216C28.0401 14.097 28.002 13.6555 27.7129 13.3733L27.6627 13.2574C17.2177 6.00633 12.1349 4.5634 8.20604 5.6601C3.1363 7.0762 0.330936 11.7885 0.206291 12.0031C-0.0230893 12.3978 0.110211 12.9042 0.504919 13.1344C0.526558 13.1466 0.548198 13.1578 0.569838 13.1682C0.424419 13.2729 0.336995 13.343 0.317086 13.3595C0.000281586 13.6183 -0.0732933 14.0641 0.123195 14.4086C0.165609 15.0699 0.473758 16.293 1.36791 17.7324C3.00387 20.3656 5.9685 22.3564 10.3787 23.544C11.4269 23.8262 12.5591 23.9629 13.7302 23.9629C16.9052 23.9629 20.3675 22.9563 23.2266 21.1126C25.9073 19.384 27.5839 17.22 27.9509 15.018C27.9509 15.0171 27.9509 15.0162 27.9509 15.0145C27.9509 15.0145 27.9509 15.0145 27.9509 15.0136C27.9509 15.0119 27.9509 15.011 27.9509 15.0093C27.9535 14.9955 27.9535 14.9825 27.9553 14.9686C27.957 14.9548 27.9587 14.9409 27.9596 14.9271C27.9605 14.9132 27.9596 14.8994 27.9596 14.8855L27.9631 14.8864ZM8.62672 7.18526C11.851 6.28505 15.6198 7.8206 19.6707 10.1083C22.5618 11.7408 25.4286 13.6226 26.4362 14.4363C26.4292 14.4467 26.424 14.4588 26.4171 14.4692C26.4111 14.4796 26.405 14.4891 26.3998 14.4995C26.3937 14.5116 26.3886 14.5246 26.3825 14.5376C26.3773 14.5497 26.3712 14.5618 26.3661 14.5748C26.3617 14.5869 26.3574 14.5999 26.3531 14.6129C26.3487 14.6267 26.3435 14.6397 26.3392 14.6544C26.3358 14.6674 26.3332 14.6804 26.3306 14.6942C26.328 14.7081 26.3236 14.7211 26.3219 14.7349C25.9861 16.6946 22.8483 18.167 19.9875 17.7082C17.1294 17.2494 14.9394 15.7373 12.8222 14.2744C10.9993 13.015 9.27677 11.8248 7.29458 11.4491C5.17476 11.0475 3.03589 11.8499 1.74704 12.4956C2.4672 11.173 5.08474 8.17463 8.62672 7.18613V7.18526ZM10.808 21.9452C6.93536 20.9031 4.14385 19.1979 2.73554 17.0149C1.98334 15.8481 1.69164 14.953 1.65528 14.4744C2.51308 13.9109 4.71773 12.6445 6.98643 13.0756C8.62499 13.3863 10.2081 14.4796 11.8831 15.6369C14.0462 17.1309 16.4984 18.8248 19.7261 19.3424C20.1814 19.4151 20.6367 19.4506 21.0886 19.4498C21.7559 19.4498 22.4129 19.3727 23.0413 19.2299C22.8146 19.397 22.5782 19.5606 22.3316 19.7198C18.7922 22.0024 14.2686 22.8758 10.808 21.9444V21.9452Z" fill="url(#paint0_linear_36459_5825)"/>
<path d="M0.842252 14.8276C0.565265 14.8276 0.295202 14.6891 0.13853 14.4363C-0.102968 14.0477 0.0164827 13.5379 0.405131 13.2964C0.895919 12.9917 12.493 5.83759 19.2412 5.82288H19.268C22.7139 5.82288 24.7662 7.30216 25.8811 8.54515C27.0756 9.87642 27.8676 11.7097 27.9983 13.4487C28.0329 13.9049 27.691 14.3022 27.2349 14.3359C26.7804 14.3714 26.3814 14.0286 26.3476 13.5725C26.1892 11.463 24.5039 7.47874 19.268 7.47874H19.2455C12.9665 7.49259 1.39536 14.6311 1.27851 14.7029C1.14261 14.7869 0.991999 14.8276 0.842252 14.8276Z" fill="#FAFAFA"/>
<path d="M7.82814 21.2935C7.27503 21.2935 6.71932 21.2528 6.15842 21.1637C1.31027 20.395 0.138266 15.3063 0.0906584 15.0907C-0.00715289 14.6441 0.275028 14.2026 0.721671 14.1048C1.16745 14.0061 1.60803 14.2883 1.70757 14.7332C1.74653 14.9046 2.69607 18.9391 6.4181 19.5295C9.93757 20.0878 13.5462 18.3592 16.7307 16.834C17.2492 16.5856 17.7382 16.351 18.2316 16.1234C18.8929 15.8178 19.5291 15.5062 20.1446 15.205C23.0651 13.7742 25.5882 12.5372 27.4242 13.8728C27.7938 14.142 27.876 14.6597 27.6068 15.0293C27.3376 15.3989 26.82 15.4811 26.4504 15.2119C25.4212 14.4632 23.3135 15.4958 20.8734 16.6921C20.2493 16.9976 19.6053 17.3136 18.9267 17.6269C18.4446 17.8493 17.9598 18.0813 17.4474 18.3272C14.5183 19.7303 11.2524 21.2944 7.82987 21.2944L7.82814 21.2935Z" fill="#FAFAFA"/>
<path d="M14 28C6.2807 28 0 21.7193 0 14C0 6.2807 6.2807 0 14 0C21.7193 0 28 6.2807 28 14C28 21.7193 21.7193 28 14 28ZM14 1.65587C7.19303 1.65587 1.65587 7.19389 1.65587 14C1.65587 20.8061 7.19389 26.3441 14 26.3441C20.8061 26.3441 26.3441 20.8061 26.3441 14C26.3441 7.19389 20.807 1.65587 14 1.65587Z" fill="#FAFAFA"/>
<defs>
<linearGradient id="paint0_linear_36459_5825" x1="0.0149966" y1="14.6475" x2="27.9639" y2="14.6475" gradientUnits="userSpaceOnUse">
<stop stop-color="white" stop-opacity="0.8"/>
<stop offset="0.26" stop-color="white" stop-opacity="0.45"/>
<stop offset="0.5" stop-color="white" stop-opacity="0.3"/>
<stop offset="0.75" stop-color="white" stop-opacity="0.48"/>
<stop offset="1" stop-color="white" stop-opacity="0.8"/>
</linearGradient>
</defs>
</svg>
