<svg width="1920" height="446" viewBox="0 0 1920 446" fill="none" xmlns="http://www.w3.org/2000/svg">
<g clip-path="url(#clip0_4996_24546)">
<path d="M804.958 236.609V336.656H849.886V236.609C849.886 216.092 862.603 203.264 882.943 203.264H915.154V161.363H880.403C833.78 161.363 804.958 190.436 804.958 236.609Z" fill="black"/>
<path d="M593.878 250.291V161.363H551.491V248.582C551.491 255.417 551.491 283.636 574.372 307.583C597.252 330.662 617.606 336.656 652.358 336.656V294.755C629.477 294.755 614.205 289.629 604.042 279.364C593.865 268.245 593.865 252 593.865 250.291H593.878Z" fill="black"/>
<path d="M730.359 294.3C714.581 292.853 703.066 287.893 693.914 279.364C683.737 268.245 683.737 252 683.737 250.291V161.363H641.349V248.582C641.349 255.417 641.349 283.636 664.244 307.583C684.993 328.513 706.303 336.656 730.359 336.656H775.287V161.377H730.359V294.314V294.3Z" fill="black"/>
<path d="M982.131 104.939H937.202V268.259C937.202 310.16 964.332 336.656 1006.72 336.656H1048.26V294.755H1009.26C994.002 294.755 982.131 281.927 982.131 267.391V203.264H1048.25V161.363H982.131V104.925V104.939Z" fill="black"/>
<path d="M1150.82 161.377H1072.84V336.656H1117.77V203.264H1147.44C1166.93 203.264 1180.49 216.947 1180.49 236.609V336.656H1225.42V236.609C1225.42 190.436 1196.6 161.363 1150.82 161.363V161.377Z" fill="black"/>
<path d="M1282.82 340.762C1301.27 340.762 1316.22 325.679 1316.22 307.073C1316.22 288.467 1301.27 273.384 1282.82 273.384C1264.38 273.384 1249.42 288.467 1249.42 307.073C1249.42 325.679 1264.38 340.762 1282.82 340.762Z" fill="black"/>
<path d="M1382.59 104.939H1346.74V336.545H1382.59V104.939Z" fill="black"/>
<path d="M1559.48 298.833V230.711C1559.48 184.814 1535.97 161.528 1489.61 161.528C1447.25 161.528 1424 189.981 1419.76 218.172L1419.53 219.757H1454.38L1454.61 218.682C1458.34 201.734 1472 191.221 1490.26 191.221C1511.04 191.221 1523.95 199.516 1523.95 212.881C1523.95 225.434 1516.96 230.628 1495.18 234.225C1492.54 234.679 1489.46 235.12 1486.18 235.589C1458.33 239.598 1411.7 246.309 1411.7 289.422C1411.7 314.141 1430.35 340.762 1471.28 340.762C1487.26 340.762 1500.48 336.725 1510.59 328.747C1517.31 323.442 1521.57 317.241 1524.26 311.868V313.108C1524.26 321.155 1524.26 328.099 1524.92 335.292L1525.03 336.545H1562.32L1562.03 334.92C1560.5 326.308 1559.48 311.799 1559.48 298.833ZM1524.58 243.084V257.304C1524.58 307.803 1489.44 311.716 1478.67 311.716C1459.57 311.716 1447.23 302.705 1447.23 288.761C1447.23 274.817 1457.21 268.134 1482.76 263.201C1509.52 258.572 1519.77 251.09 1524.58 243.084Z" fill="black"/>
<path d="M1743.1 186.412C1729.11 170.346 1709.52 161.859 1686.44 161.859C1659.53 161.859 1640.33 177.456 1632.17 193.646V104.939H1595.99V336.545H1632.17V309.566C1640.54 325.246 1659.77 340.431 1686.11 340.431C1732.9 340.431 1764.34 304.413 1764.34 250.814C1764.34 224.634 1756.99 202.368 1743.1 186.412ZM1679.36 310.104C1643.11 310.104 1630.24 278.165 1630.24 250.814C1630.24 221.631 1645.43 192.186 1679.36 192.186C1709.66 192.186 1728.48 214.659 1728.48 250.814C1728.48 286.969 1709.66 310.104 1679.36 310.104Z" fill="black"/>
<path d="M1869.77 239.103C1865.36 237.946 1861.15 236.926 1856.7 235.837C1853.72 235.107 1850.7 234.377 1847.57 233.591C1830.34 229.237 1821.59 221.838 1821.59 211.573C1821.59 201.308 1832.03 191.222 1849.49 191.222C1864.23 191.222 1880.66 198.221 1882.54 217.87L1882.67 219.11H1917.58L1917.43 217.594C1914.09 183.216 1888.42 161.845 1850.47 161.845C1834.15 161.845 1818.07 166.723 1806.38 175.238C1793.3 184.76 1786.39 197.767 1786.39 212.854C1786.39 236.375 1803.77 254.232 1834.01 261.865C1840.48 263.767 1847.21 265.448 1853.69 267.074L1857.52 268.038C1872.27 271.924 1884.47 276.182 1884.47 289.092C1884.47 309.485 1859.91 311.069 1852.4 311.069C1831.61 311.069 1820.38 302.458 1817.08 283.98L1816.88 282.85H1781.46L1781.57 284.339C1784.85 325.937 1819.97 340.763 1851.75 340.763C1883.54 340.763 1920.01 321.968 1920.01 287.149C1920.01 263.657 1903.58 247.935 1869.79 239.103H1869.77Z" fill="black"/>
<path d="M441.294 236.968C441.294 236.747 441.308 236.527 441.294 236.307C441.294 236.086 441.253 235.879 441.24 235.659C441.226 235.439 441.212 235.218 441.185 235.011C441.158 234.805 441.103 234.584 441.076 234.378C441.035 234.171 441.007 233.95 440.953 233.744C440.898 233.537 440.844 233.33 440.775 233.137C440.721 232.931 440.666 232.724 440.598 232.517C440.529 232.311 440.447 232.132 440.365 231.925C440.283 231.732 440.215 231.525 440.133 231.332C440.051 231.14 439.942 230.96 439.846 230.781C439.751 230.588 439.655 230.395 439.56 230.216C439.464 230.037 439.341 229.872 439.232 229.707C439.204 229.665 439.177 229.61 439.136 229.569C442.51 224.402 441.909 217.374 437.347 212.883L436.554 211.036C271.716 95.6111 191.503 72.6418 129.499 90.0996C49.4912 112.642 5.21829 187.654 3.25122 191.071C-0.36875 197.354 1.73493 205.414 7.964 209.08C8.30551 209.273 8.64701 209.452 8.98852 209.617C6.6936 211.284 5.31391 212.4 4.99973 212.662C7.63237e-05 216.782 -1.16104 223.878 1.93983 229.362C2.60918 239.889 7.47223 259.359 21.5833 282.273C47.4011 324.188 94.1875 355.879 163.786 374.784C180.329 379.276 198.197 381.453 216.679 381.453C266.785 381.453 321.426 365.428 366.545 336.079C408.851 308.563 435.311 274.116 441.103 239.062C441.103 239.049 441.103 239.035 441.103 239.007C441.103 239.007 441.103 239.007 441.103 238.993C441.103 238.966 441.103 238.952 441.103 238.925C441.144 238.704 441.144 238.497 441.171 238.277C441.199 238.056 441.226 237.836 441.24 237.616C441.253 237.395 441.24 237.175 441.24 236.954L441.294 236.968ZM136.138 114.378C187.023 100.048 246.499 124.491 310.429 160.909C356.054 186.896 401.297 216.851 417.198 229.803C417.088 229.968 417.006 230.161 416.897 230.327C416.802 230.492 416.706 230.643 416.624 230.809C416.528 231.002 416.446 231.208 416.351 231.415C416.269 231.608 416.173 231.801 416.091 232.008C416.023 232.2 415.955 232.407 415.886 232.614C415.818 232.834 415.736 233.041 415.668 233.275C415.613 233.482 415.572 233.689 415.531 233.909C415.49 234.13 415.422 234.336 415.395 234.557C410.094 265.752 360.576 289.19 315.429 281.887C270.323 274.584 235.762 250.513 202.349 227.226C173.581 207.178 146.397 188.232 115.115 182.252C81.661 175.859 47.9066 188.632 27.5665 198.911C38.9318 177.857 80.2404 130.127 136.138 114.392V114.378ZM170.562 349.334C109.446 332.744 65.3917 305.6 43.1665 270.85C31.2957 252.276 26.6922 238.029 26.1185 230.409C39.6558 221.439 74.4484 201.281 110.252 208.143C136.111 213.089 161.095 230.492 187.528 248.914C221.665 272.696 260.364 299.662 311.303 307.901C318.489 309.059 325.674 309.624 332.805 309.61C343.337 309.61 353.705 308.384 363.622 306.11C360.043 308.769 356.314 311.374 352.421 313.909C296.564 350.244 225.176 364.146 170.562 349.32V349.334Z" fill="url(#paint0_linear_4996_24546)"/>
<path d="M13.2913 236.03C8.92001 236.03 4.65803 233.825 2.18553 229.802C-1.62566 223.615 0.259446 215.5 6.39287 211.655C14.1382 206.805 197.158 92.9242 303.652 92.6899H304.076C358.457 92.6899 390.845 116.238 408.44 136.024C427.291 157.216 439.79 186.399 441.853 214.081C442.399 221.342 437.003 227.666 429.804 228.204C422.633 228.769 416.335 223.312 415.803 216.051C413.303 182.472 386.706 119.049 304.076 119.049H303.721C204.63 119.269 22.0201 232.902 20.176 234.046C18.0314 235.382 15.6545 236.03 13.2913 236.03Z" fill="black"/>
<path d="M123.543 338.957C114.814 338.957 106.044 338.309 97.1926 336.89C20.6816 324.655 2.18565 243.649 1.43434 240.219C-0.109268 233.109 4.34397 226.082 11.3927 224.525C18.4277 222.954 25.3807 227.446 26.9517 234.528C27.5664 237.256 42.5517 301.479 101.291 310.876C156.833 319.763 213.783 292.247 264.039 267.969C272.221 264.014 279.939 260.28 287.726 256.657C298.162 251.793 308.202 246.832 317.915 242.037C364.004 219.261 403.824 199.571 432.797 220.832C438.63 225.117 439.928 233.357 435.68 239.24C431.431 245.124 423.262 246.433 417.43 242.148C401.188 230.229 367.925 246.667 329.417 265.709C319.568 270.573 309.404 275.602 298.695 280.59C291.086 284.131 283.436 287.824 275.349 291.737C229.123 314.072 177.583 338.971 123.571 338.971L123.543 338.957Z" fill="black"/>
<path d="M220.94 445.715C99.1184 445.715 0 345.736 0 222.857C0 99.9786 99.1184 0 220.94 0C342.762 0 441.88 99.9786 441.88 222.857C441.88 345.736 342.762 445.715 220.94 445.715ZM220.94 26.3587C113.516 26.3587 26.132 114.515 26.132 222.857C26.132 331.2 113.53 419.356 220.94 419.356C328.35 419.356 415.748 331.2 415.748 222.857C415.748 114.515 328.364 26.3587 220.94 26.3587Z" fill="black"/>
</g>
<defs>
<linearGradient id="paint0_linear_4996_24546" x1="0.2323" y1="233.165" x2="441.308" y2="233.165" gradientUnits="userSpaceOnUse">
<stop stop-opacity="0.8"/>
<stop offset="0.26" stop-opacity="0.45"/>
<stop offset="0.5" stop-opacity="0.3"/>
<stop offset="0.75" stop-opacity="0.48"/>
<stop offset="1" stop-opacity="0.8"/>
</linearGradient>
<clipPath id="clip0_4996_24546">
<rect width="1920" height="445.715" fill="white"/>
</clipPath>
</defs>
</svg>
